<svg width="30" height="30" viewBox="0 0 30 30" fill="none" xmlns="http://www.w3.org/2000/svg">
<path d="M30 30H0V11.7391H30V30ZM1.30435 28.6957H28.6957V13.0435H1.30435V28.6957Z" fill="black"/>
<path d="M9.13048 6.52174H3.91309V0H9.13048V6.52174ZM5.21743 5.21739H7.82613V1.30435H5.21743V5.21739Z" fill="black"/>
<path d="M26.087 6.52174H20.8696V0H26.087V6.52174ZM22.1739 5.21739H24.7826V1.30435H22.1739V5.21739Z" fill="black"/>
<path d="M25.4348 3.26086V5.86956H21.5217V3.26086H8.47825V5.86956H4.5652V3.26086H0.652161V9.7826H29.3478V3.26086H25.4348Z" fill="#FFC44D"/>
<path d="M30 10.4347H0V2.60864H5.21739V5.21734H7.82609V2.60864H22.1739V5.21734H24.7826V2.60864H30V10.4347ZM1.30435 9.13038H28.6957V3.91299H26.087V6.52169H20.8696V3.91299H9.13043V6.52169H3.91304V3.91299H1.30435V9.13038Z" fill="black"/>
<path d="M12.3913 25.4348H11.087V16.9566H9.13043V15.6522H12.3913V25.4348Z" fill="black"/>
<path d="M19.5652 25.4348H18.2608V16.9566H16.3043V15.6522H19.5652V25.4348Z" fill="black"/>
<path d="M14.3478 24.7826H9.13043V26.0869H14.3478V24.7826Z" fill="black"/>
<path d="M21.5217 24.7826H16.3043V26.0869H21.5217V24.7826Z" fill="black"/>
</svg>
