<svg width="8" height="13" viewBox="0 0 8 13" fill="none" xmlns="http://www.w3.org/2000/svg">
<path d="M0.714 0.929999H2.516C3.04867 0.929999 3.536 1.04333 3.978 1.27C4.42 1.48533 4.80533 1.78 5.134 2.154C5.46267 2.51667 5.71767 2.93033 5.899 3.395C6.08033 3.84833 6.171 4.313 6.171 4.789C6.171 5.34433 6.06333 5.87133 5.848 6.37C5.644 6.86867 5.34933 7.29367 4.964 7.645C4.59 7.99633 4.148 8.24 3.638 8.376L6.562 13H4.828L1.224 7.305H2.533C2.95233 7.305 3.315 7.19167 3.621 6.965C3.93833 6.727 4.182 6.41533 4.352 6.03C4.53333 5.64467 4.624 5.231 4.624 4.789C4.624 4.33567 4.522 3.922 4.318 3.548C4.114 3.16267 3.84767 2.85667 3.519 2.63C3.19033 2.40333 2.82767 2.29 2.431 2.29H0.714V0.929999ZM7.854 3.871H0.714V2.987H7.854V3.871ZM7.854 1.814H0.714V0.929999H7.854V1.814Z" fill="#496581"/>
</svg>
